<mxfile host="app.diagrams.net" modified="2024-01-08T08:34:32.035Z" agent="Mozilla/5.0 (Windows NT 10.0; Win64; x64) AppleWebKit/537.36 (KHTML, like Gecko) Chrome/120.0.0.0 Safari/537.36 Edg/120.0.0.0" version="22.1.17" etag="XLYuOEeBpY9s5rm_LneJ" type="github">
  <diagram name="Page-1" id="6K0z0J4UpfmMwYKu7gFX">
    <mxGraphModel>
      <root>
        <mxCell id="0" />
        <mxCell id="1" parent="0" />
      </root>
    </mxGraphModel>
  </diagram>
</mxfile>
